<?xml version="1.0" encoding="utf-8" ?><svg xmlns="http://www.w3.org/2000/svg" width="512" height="880" viewBox="270 72 480 880"><path fill="#FFC0CB" transform="scale(2 2)" d="M217.398 116.672C214.008 104.896 214.048 92.3305 220.611 81.7504C247.285 38.7474 307.946 67.2462 294.562 116.672C317.608 104.104 347.182 106.142 357.058 133.995C365.363 157.416 348.14 181.492 324.857 186.106C321.678 186.739 318.825 186.888 315.706 187.793C362.872 225.338 308.248 284.222 268.19 251.558C267.25 250.791 265.722 249.485 264.777 248.91C262.733 246.82 258.71 240.688 257.338 238.122C254.643 242.261 252.016 245.237 249.53 248.91C239.54 256.354 233.367 261.018 220.192 261.293C195.37 261.759 175.954 240.806 179.619 215.9C181.755 201.382 186.15 197.608 195.689 187.793C182.009 187.802 167.738 180.063 160.078 168.767C137.314 135.2 176.231 91.0144 217.398 116.672Z"/><path fill="#FFC0CB" transform="scale(2 2)" d="M195.689 187.793C210.203 178.365 212.86 181.446 226.11 178.166C231.537 191.764 245.467 199.976 259.992 198.14C264.749 205.114 261.947 225.659 259.631 232.873C259.078 234.596 257.87 236.403 257.338 238.122C254.643 242.261 252.016 245.237 249.53 248.91C239.54 256.354 233.367 261.018 220.192 261.293C195.37 261.759 175.954 240.806 179.619 215.9C181.755 201.382 186.15 197.608 195.689 187.793Z"/><path fill="#C08057" transform="scale(2 2)" d="M226.11 178.166C221.016 165.4 224.604 150.807 235.038 141.859C245.472 132.911 260.441 131.588 272.282 138.569C284.123 145.549 290.214 159.287 287.436 172.748C284.659 186.21 273.629 196.415 259.992 198.14C245.467 199.976 231.537 191.764 226.11 178.166Z"/><path fill="#2FBB10" transform="scale(2 2)" d="M249.53 382.774C203.747 383.078 158.425 358.314 143.255 313.244C141.417 307.785 136.003 289.386 145.169 288.029C195.28 281.642 237.564 320.879 249.404 367.424L249.53 367.905C249.805 373.063 249.108 377.476 249.53 382.774Z"/><path fill="#2FBB10" transform="scale(2 2)" d="M264.777 382.774C266.389 380.605 268.242 374.977 269.307 372.228C285.189 331.237 326.465 304.576 371.508 310.854C370.883 369.417 318.411 403.401 263.558 402.75C264.119 397.126 265.22 388.086 264.777 382.774Z"/><path fill="#8B4513" transform="scale(2 2)" d="M257.338 238.122C258.71 240.688 262.733 246.82 264.777 248.91C269.409 291.202 267.976 333.299 265.693 375.61C265.55 378.26 265.322 380.178 264.777 382.774C265.22 388.086 264.119 397.126 263.558 402.75C261.281 420.032 259.663 449.093 254.061 465.236C250.738 474.812 236.574 471.052 238.85 460.539C243.538 438.876 245.843 420.798 247.998 398.875C248.511 393.466 248.461 388.112 249.53 382.774C249.108 377.476 249.805 373.063 249.53 367.905C250.345 363.491 250.563 358.586 250.816 354.076C252.467 324.618 252.574 293.419 250.274 264.129C249.87 258.976 249.227 254.095 249.53 248.91C252.016 245.237 254.643 242.261 257.338 238.122Z"/></svg>
