<?xml version="1.0" encoding="utf-8" ?><svg xmlns="http://www.w3.org/2000/svg" xmlns:xlink="http://www.w3.org/1999/xlink" width="1024" height="1024" viewBox="0 0 1024 1024"><defs><linearGradient id="gradient_0" gradientUnits="userSpaceOnUse" x1="168.92458" y1="129.68042" x2="348.44351" y2="372.24545"><stop offset="0" stop-color="#FFAB44"/><stop offset="1" stop-color="#F5CC83"/></linearGradient></defs><path fill="url(#gradient_0)" transform="scale(2 2)" d="M55.9214 231.019C80.8396 182.996 145.323 146.508 194.506 127.652C261.372 103.277 352.068 90.8879 413.612 135.93C443.596 157.874 464.418 191.845 459.882 229.891C457.423 290.921 409.304 333.599 359.723 361.724C317.202 385.845 269.113 400.653 220.177 402.642C172.3 404.587 96.3046 397.652 85.5251 339.673C85.3286 333.446 85.2032 324.329 86.8843 318.623C100.71 271.969 166.963 306.9 177.695 265.251C170.246 254.353 160.566 251.405 147.852 252.419C127.84 254.016 119.693 270.882 104.128 279.25C90.2579 286.707 64.1058 283.994 56.8576 267.685C51.2557 255.082 51.5136 243.882 55.9214 231.019Z"/><defs><linearGradient id="gradient_1" gradientUnits="userSpaceOnUse" x1="125.76048" y1="280.0343" x2="105.31924" y2="216.06905"><stop offset="0" stop-color="#BB6228"/><stop offset="1" stop-color="#E58634"/></linearGradient></defs><path fill="url(#gradient_1)" transform="scale(2 2)" d="M55.9214 231.019C56.7475 231.745 57.0168 231.755 56.9328 233.001C55.5841 251.265 70.7212 262.345 87.8728 261.418C102.178 260.644 109.812 253.486 119.534 244.165C133.541 230.737 158.315 225.043 174.147 238.367C178.342 241.898 187.234 258.018 178.958 260.104C177.913 261.513 178.451 264.083 177.695 265.251C170.246 254.353 160.566 251.405 147.852 252.419C127.84 254.016 119.693 270.882 104.128 279.25C90.2579 286.707 64.1058 283.994 56.8576 267.685C51.2557 255.082 51.5136 243.882 55.9214 231.019Z"/><path fill="#E18631" transform="scale(2 2)" d="M85.5251 339.673L85.7789 339.26C86.5897 339.743 87.7288 347.138 88.3407 349.241C91.0083 358.409 97.1413 366.991 104.145 373.372C111.029 379.645 127.596 390.418 135.811 390.587L136.127 390.591L136.114 391.008L136.259 391.159C138.646 391.52 154.707 396.787 157.471 397.706C158.342 397.996 162.452 398.383 162.997 397.971C166.131 400.642 167.559 397.767 169.852 398.259L169.592 398.939C170.583 399.524 171.385 398.701 172.082 398.725C172.633 399.067 174.292 400.629 174.875 400.698C184.243 401.807 194.811 402.564 204.31 402.768C206.827 402.822 209.344 402.109 211.872 402.175C281.171 402.015 360.583 371.36 412.03 323.673C437.921 299.674 457.851 266.823 459.356 230.803C459.378 230.277 459.407 230.478 459.882 229.891C457.423 290.921 409.304 333.599 359.723 361.724C317.202 385.845 269.113 400.653 220.177 402.642C172.3 404.587 96.3046 397.652 85.5251 339.673Z"/><path fill="#2695F3" transform="scale(2 2)" d="M184.892 302.097C197.179 300.406 215.516 318.799 215.006 330.946C214.352 346.531 198.268 352.922 184.892 352.726C139.883 352.898 149.709 305.485 184.892 302.097Z"/><path fill="#62C1F5" transform="scale(2 2)" d="M179.632 306.074C188.014 305.168 186.364 313.472 178.311 314.429C170.102 314.619 170.48 307.591 179.632 306.074Z"/><path fill="#62C1F5" transform="scale(2 2)" d="M164.998 319.556C170.414 319.566 168.717 330.275 161.773 330.926C155.691 329.671 158.354 320.997 164.998 319.556Z"/><path fill="#B50ECB" transform="scale(2 2)" d="M353.15 251.992C366.569 250.132 383.292 256.626 386.257 271.152C389.663 301.809 332.75 307.241 325.387 280.363C323.714 265.677 333.926 255.347 348.067 253.37C350.075 252.447 350.886 252.053 353.15 251.992Z"/><path fill="#9800A6" transform="scale(2 2)" d="M325.387 280.363C327.161 279.773 328.696 281.552 329.948 282.784C343.064 295.674 369.245 294.967 380.371 279.773C381.549 278.165 384.026 271.996 385.938 272.01L386.257 271.152C389.663 301.809 332.75 307.241 325.387 280.363Z"/><path fill="#CF4EDF" transform="scale(2 2)" d="M348.067 253.37C350.075 252.447 350.886 252.053 353.15 251.992C353.725 252.746 353.796 252.922 354.658 253.37C358.914 254.448 359.261 256.886 356.392 259.789L356.311 259.872C351.194 261.45 341.101 260.91 348.067 254.014L348.067 253.37Z"/><path fill="#C52CD3" transform="scale(2 2)" d="M348.067 253.37C350.075 252.447 350.886 252.053 353.15 251.992C353.725 252.746 353.796 252.922 354.658 253.37C352.668 253.408 349.799 253.242 348.067 254.014L348.067 253.37Z"/><path fill="#CF4EDF" transform="scale(2 2)" d="M335.78 266.189C339.829 266.179 339.582 274.719 335.78 277.392C329.778 275.771 331.259 268.801 335.78 266.189Z"/><path fill="#FED30E" transform="scale(2 2)" d="M284.636 139.307C288.647 111.311 339.558 113.924 341.742 140.416C342.151 141.914 342.246 146.173 341.881 147.699C335.081 176.107 278.761 170.125 284.636 139.307Z"/><path fill="#FC9918" transform="scale(2 2)" d="M284.636 139.307C287.471 164.603 335.539 168.878 341.742 140.416C342.151 141.914 342.246 146.173 341.881 147.699C335.081 176.107 278.761 170.125 284.636 139.307Z"/><path fill="#FFE163" transform="scale(2 2)" d="M309.799 122.551C318.658 122.936 315.752 129.183 307.82 131.271L307.657 131.284C300.04 131.968 300.051 124.525 309.799 122.551Z"/><path fill="#FFE163" transform="scale(2 2)" d="M295.257 132.211C297.807 132.209 298.379 133.343 299.72 135.281C299.776 136.574 299.732 138.002 299.72 139.307C298.573 141.036 297.023 142.649 295.257 143.748C292.608 144.353 291.495 141.225 290.513 139.307C291.463 135.706 292.279 134.278 295.257 132.211Z"/><path fill="#5B5F60" transform="scale(2 2)" d="M248.716 320.624C248.339 295.959 299.55 284.909 305.766 320.624C308.87 351.057 247.973 355.154 248.716 320.624Z"/><path fill="#3B3D3F" transform="scale(2 2)" d="M305.766 320.624C308.87 351.057 247.973 355.154 248.716 320.624C250.471 322.154 252.303 326.55 254.032 328.665C264.949 342.077 291.413 341.439 301.331 327.032C302.381 325.507 304.437 321.441 305.766 320.624Z"/><path fill="#67A4A1" transform="scale(2 2)" d="M271.337 300.808C281.626 299.915 276.65 307.371 269.066 309.343C259.104 310.759 262.288 302.571 271.337 300.808Z"/><path fill="#67A4A1" transform="scale(2 2)" d="M257.07 310.459C262.892 310.568 262.704 318.917 257.938 321.471C251.841 321.855 252.083 312.826 257.07 310.459Z"/><path fill="#FC9918" transform="scale(2 2)" d="M127.578 191.693C127.85 165.055 176.605 161.228 181.79 190.394C188.218 219.862 134.457 226.508 127.886 197.855C127.569 196.472 127.32 193.059 127.578 191.693Z"/><path fill="#E18631" transform="scale(2 2)" d="M181.79 190.394C188.218 219.862 134.457 226.508 127.886 197.855C127.569 196.472 127.32 193.059 127.578 191.693C128.837 193.179 129.638 196.288 130.77 198.201C142.412 217.862 176.445 214.677 181.79 190.394Z"/><path fill="#FEBB56" transform="scale(2 2)" d="M148.63 174.546C158.354 174.041 155.31 181.889 147.369 183.911C143.549 184.249 142.366 182.719 140.619 179.746C143.044 176.389 144.474 175.432 148.63 174.546Z"/><path fill="#FEBB56" transform="scale(2 2)" d="M135.451 185.953C140.924 186.193 141.015 194.256 136.94 197.455C131.057 195.792 131.086 189.165 135.451 185.953Z"/><path fill="#E91F20" transform="scale(2 2)" d="M381.783 151.098C398.04 149.726 411.862 162.302 412.429 178.428C412.835 189.943 399.482 197.415 389.179 197.455C349.233 200.724 348.614 154.981 381.783 151.098Z"/><path fill="#FE6F62" transform="scale(2 2)" d="M366.692 166.789C372.558 166.931 372.169 175.231 365.703 176.358C360.063 175.077 360.066 168.291 366.692 166.789Z"/><path fill="#FE6F62" transform="scale(2 2)" d="M380.696 154.072C387.32 153.382 385.282 159.073 377.943 160.564C370.124 161.751 373.994 155.205 380.696 154.072Z"/><path fill="#20BD2A" transform="scale(2 2)" d="M214.844 177.236C219.567 152.527 262.308 152.513 267.975 177.236C273.749 206.691 211.652 209.872 214.844 177.236Z"/><path fill="#118F1D" transform="scale(2 2)" d="M214.844 177.236C215.643 177.802 216.183 179.237 216.579 180.188C226.129 203.13 263.72 198.081 267.975 177.236C273.749 206.691 211.652 209.872 214.844 177.236Z"/><path fill="#81DE80" transform="scale(2 2)" d="M237.093 161.324C245.814 162.148 239.299 168.926 232.493 170.304C222.552 170.159 229.832 162.475 237.093 161.324Z"/><path fill="#81DE80" transform="scale(2 2)" d="M222.711 172.162C228.645 172.154 229.467 178.843 225.343 182.087L225.082 182.127C218.955 183.016 220.005 175.204 222.711 172.162Z"/><path fill="#2695F3" transform="scale(2 2)" d="M411.418 205.569C426.387 203.875 433.392 218.83 406.559 225.047C382.767 229.081 395.756 207.891 411.418 205.569Z"/><path fill="#62C1F5" transform="scale(2 2)" d="M419.061 210.723C424.527 209.848 423.663 213.605 420.624 216.266C415.817 216.579 414.862 211.431 419.061 210.723Z"/><path fill="#E18631" transform="scale(2 2)" d="M183.251 389.456L183.624 389.433C186.711 389.264 186.15 390.562 189.246 391.499L189.354 391.995C188.259 393.596 185.082 393.134 183.251 393.065L182.805 393.41C180.947 393.422 178.723 394.195 177.359 393.39L177.248 392.804C179.05 388.617 181.148 390.541 183.251 389.456Z"/><path fill="#E18631" transform="scale(2 2)" d="M177.695 389.456C177.884 391.021 175.551 392.993 174.292 393.617C173.345 394.086 172.252 392.604 171.157 392.218C165.916 390.693 176.902 389.773 177.695 389.456Z"/></svg>