<?xml version="1.0" encoding="utf-8" ?><svg xmlns="http://www.w3.org/2000/svg" xmlns:xlink="http://www.w3.org/1999/xlink" width="1024" height="1024" viewBox="0 0 1024 1024"><path fill="#FBC34B" transform="scale(2 2)" d="M153.109 257.105C148.775 239.807 193.324 267.5 197.101 270.199C222.674 288.465 245.196 313.404 260.86 340.652C263.706 345.604 272.065 359.3 263.426 362.108C258.558 365.533 246.436 370.526 240.737 373.131C225.671 380.018 204.645 387.991 190.79 396.342C177.849 401.732 165.652 407.356 152.921 413.126L98.0165 437.777C90.195 441.219 81.2991 445.746 73.491 448.784C74.323 445.976 75.747 442.826 76.8707 440.076L81.9787 427.439C83.3576 424.068 86.7046 415.259 88.2587 412.567C93.0434 400.622 98.9927 388.823 102.925 376.561C104.171 373 114.902 346.335 116.299 344.576C117.78 341.123 119.028 337.102 120.543 333.481L147.861 268.226C148.567 265.908 151.096 258.241 153.109 257.105Z"/><path fill="#DBDADA" transform="scale(2 2)" d="M241.009 353.475C247.339 357.548 256.03 360.848 263.426 362.108C258.558 365.533 246.436 370.526 240.737 373.131C225.671 380.018 204.645 387.991 190.79 396.342C177.849 401.732 165.652 407.356 152.921 413.126L98.0165 437.777C90.195 441.219 81.2991 445.746 73.491 448.784C74.323 445.976 75.747 442.826 76.8707 440.076L81.9787 427.439C83.3576 424.068 86.7046 415.259 88.2587 412.567C93.0434 400.622 98.9927 388.823 102.925 376.561C105.104 376.682 116.093 374.6 118.855 374.128L153.749 368.208C174.955 364.672 196.319 361.355 217.476 357.588C223.652 356.488 235.282 354.978 241.009 353.475Z"/><path fill="#FBC34B" transform="scale(2 2)" d="M88.2587 412.567C90.4731 412.483 95.0845 411.571 97.3949 411.153L179.763 397.356C181.826 397.032 189.39 395.497 190.79 396.342C177.849 401.732 165.652 407.356 152.921 413.126L98.0165 437.777C90.195 441.219 81.2991 445.746 73.491 448.784C74.323 445.976 75.747 442.826 76.8707 440.076L81.9787 427.439C83.3576 424.068 86.7046 415.259 88.2587 412.567Z"/><path fill="#BA3A4B" transform="scale(2 2)" d="M153.109 257.105C148.775 239.807 193.324 267.5 197.101 270.199C222.674 288.465 245.196 313.404 260.86 340.652C263.706 345.604 272.065 359.3 263.426 362.108C256.03 360.848 247.339 357.548 241.009 353.475C226.691 345.447 218.7 339.202 206.226 328.953C204.846 327.655 203.58 326.474 202.132 325.255C201.036 323.864 198.306 321.422 196.951 320.139C180.082 304.16 166.5 286.48 156.389 265.466C155.355 262.605 154.072 260.148 153.109 257.105Z"/><defs><linearGradient id="gradient_0" gradientUnits="userSpaceOnUse" x1="142.66296" y1="262.52811" x2="160.7037" y2="338.91299"><stop offset="0" stop-color="#EED4DF"/><stop offset="1" stop-color="#E7EBE8"/></linearGradient></defs><path fill="url(#gradient_0)" transform="scale(2 2)" d="M153.109 257.105C154.072 260.148 155.355 262.605 156.389 265.466C166.5 286.48 180.082 304.16 196.951 320.139C198.306 321.422 201.036 323.864 202.132 325.255C202.652 327.363 200.439 327.575 200.087 329.777L199.887 329.939L200.192 330.141C195.215 331.517 187.825 332.552 182.596 333.458L129.398 342.351C125.729 342.959 119.811 344.212 116.299 344.576C117.78 341.123 119.028 337.102 120.543 333.481L147.861 268.226C148.567 265.908 151.096 258.241 153.109 257.105Z"/><path fill="#DBDADA" transform="scale(2 2)" d="M153.109 257.105C154.072 260.148 155.355 262.605 156.389 265.466C153.773 266.288 151.833 262.918 151.598 260.675L151.379 260.744C151.005 262.51 149.044 266.932 147.861 268.226C148.567 265.908 151.096 258.241 153.109 257.105Z"/><path fill="#DBDADA" transform="scale(2 2)" d="M202.132 325.255C203.58 326.474 204.846 327.655 206.226 328.953C205.069 329.341 201.514 329.956 200.192 330.141L199.887 329.939L200.087 329.777C200.439 327.575 202.652 327.363 202.132 325.255Z"/><path fill="#A9BFEF" transform="scale(2 2)" d="M213.007 122.346C223.012 121.406 217.253 131.61 215.944 135.21C203.897 168.343 239.246 168.189 242.206 197.632C243.289 207.872 241.01 217.987 234.153 225.878C231.036 229.325 227.142 235.282 222.321 235.727C221.73 235.774 220.333 235.692 219.91 235.359C212.373 229.527 223.047 223.766 226.715 219.163C235.913 207.619 234.048 192.745 223.894 182.487C220.244 178.782 216.128 175.855 212.756 171.846C201.177 158.082 200.963 141.542 208.752 126.022C209.825 123.884 210.766 123.007 213.007 122.346Z"/><path fill="#DBDADA" transform="scale(2 2)" d="M394.542 202.822C409.407 201.77 397.438 242.28 365.475 245.537C359.366 246.152 352.392 244.825 346.346 245.403C318.971 248.023 322.982 275.444 316.498 279.653C314.945 279.911 314.075 279.78 312.532 279.653C303.211 275.385 317.821 236.367 346.644 235.518C355.116 235.34 365.389 236.922 373.311 233.464C394.886 224.047 386.25 206.047 394.542 202.822Z"/><path fill="#FC5067" transform="scale(2 2)" d="M421.405 105.798C424.453 114.308 420.526 123.741 412.338 127.573C404.151 131.406 394.392 128.379 389.81 120.586C385.228 112.793 387.328 102.793 394.658 97.5016C401.987 92.2102 412.14 93.3649 418.094 100.167C419.541 101.82 420.664 103.73 421.405 105.798Z"/><path fill="#FE899F" transform="scale(2 2)" d="M421.405 105.798C420.352 106.544 420.57 108.478 420.43 109.658C419.453 117.847 407.977 119.614 404.079 112.442C399.951 104.847 407.878 97.1115 417.161 100.331L417.502 100.452L418.094 100.167C419.541 101.82 420.664 103.73 421.405 105.798Z"/><path fill="#2AB039" transform="scale(2 2)" d="M115.484 187.104C124.737 186.655 132.621 193.753 133.141 203.003C133.661 212.252 126.624 220.19 117.378 220.781C108.032 221.379 99.9892 214.248 99.4632 204.897C98.9372 195.547 106.13 187.559 115.484 187.104ZM118.114 210.197C121.625 209.148 123.63 205.46 122.599 201.943C121.567 198.427 117.889 196.404 114.367 197.418C110.821 198.439 108.781 202.149 109.82 205.69C110.858 209.231 114.578 211.253 118.114 210.197Z"/><path fill="#F3C6F8" transform="scale(2 2)" d="M340.465 355.365C349.066 354.445 374.598 382.977 376.01 387.055C377.424 391.139 375.317 394.902 371.396 396.342C368.79 397.093 366.701 396.517 364.851 394.553C361.068 390.536 336.164 366.813 335.361 364.051C334.064 359.589 337.152 356.696 340.465 355.365Z"/><path fill="#A9BFEF" transform="scale(2 2)" d="M304.59 302.756C317.12 301.483 329.134 305.377 338.908 313.221C347.857 320.402 340.186 326.519 336.096 324.449C329.765 321.061 328.427 317.743 320.061 314.681C310.572 311.962 300.785 311.773 291.804 316.75C288.252 318.719 282.839 324.939 280.157 316.029C277.831 308.302 299.201 303.029 304.59 302.756Z"/><path fill="#9BDD97" transform="scale(2 2)" d="M301.909 197.303C310.643 195.245 311.165 204.72 303.473 211.767C298.15 216.642 282.622 234.372 277.203 235.727C268.259 236.097 267.004 228.114 273.196 222.343C278.994 216.94 295.745 197.434 301.909 197.303Z"/><path fill="#FEEA81" transform="scale(2 2)" d="M278.686 61.3035C284.113 60.9741 287.759 66.5555 284.988 71.2376C283.05 74.512 257.402 100.39 252.854 101.491C248.117 101.152 243.369 96.668 246.46 91.9923C248.708 88.5921 253.014 84.9547 255.952 81.9316L268.233 69.3736C271.365 66.2291 274.299 62.4168 278.686 61.3035Z"/><path fill="#2AB039" transform="scale(2 2)" d="M296.215 385.041C303.83 384.033 310.807 389.424 311.754 397.048C312.701 404.671 307.254 411.605 299.623 412.49C292.079 413.365 285.24 407.993 284.304 400.456C283.368 392.919 288.685 386.037 296.215 385.041ZM299.236 402.942C301.462 402.367 302.798 400.094 302.219 397.87C301.639 395.645 299.363 394.313 297.14 394.898C294.923 395.48 293.596 397.748 294.174 399.966C294.752 402.184 297.017 403.516 299.236 402.942Z"/><path fill="#FBC34B" transform="scale(2 2)" d="M174.854 172.281C178.016 172.218 178.513 176.855 179.85 178.956C181.858 182.112 188.735 182.99 190.017 186.298C189.766 189.204 183.093 189.948 180.826 192.703C178.376 195.68 178.792 197.687 176.345 200.562C173.422 200.565 172.226 195.822 170.87 193.423C169.057 190.215 162.238 188.715 161.318 185.854C161.98 183.166 168.174 182.138 169.76 180.435C172.226 177.785 171.873 175.311 174.854 172.281Z"/><path fill="#FC5067" transform="scale(2 2)" d="M275.873 279.653C281.759 279.926 284.484 288.366 274.922 289.974C260.157 292.456 262.195 297.425 254.341 300.92C239.571 301.203 254.783 281.097 275.873 279.653Z"/><path fill="#FC5067" transform="scale(2 2)" d="M241.009 249.252C244.381 249.098 248.472 251.236 247.207 255.043C245.704 259.568 238.204 278.998 233.653 280.476C225.855 280.512 227.236 275.133 229.555 270.499C232.081 265.45 236.873 251.504 241.009 249.252Z"/><path fill="#FE899F" transform="scale(2 2)" d="M100.922 257.068C106.207 256.56 110.895 260.451 111.371 265.738C111.846 271.026 107.927 275.691 102.636 276.134C97.3915 276.573 92.7759 272.695 92.3046 267.453C91.8332 262.211 95.6828 257.572 100.922 257.068Z"/><path fill="#3390DD" transform="scale(2 2)" d="M429.034 167.407C434.085 166.187 439.166 169.305 440.365 174.362C441.564 179.418 438.424 184.485 433.363 185.663C428.332 186.834 423.3 183.717 422.108 178.691C420.916 173.664 424.013 168.62 429.034 167.407Z"/><path fill="#3390DD" transform="scale(2 2)" d="M178.564 103.315C183.586 102.064 188.664 105.146 189.872 110.178C191.08 115.21 187.955 120.261 182.912 121.426C177.932 122.576 172.954 119.497 171.761 114.526C170.568 109.555 173.604 104.552 178.564 103.315Z"/><path fill="#FE899F" transform="scale(2 2)" d="M323.154 90.4251C326.386 89.7232 329.747 90.8119 331.954 93.2762C334.161 95.7404 334.874 99.2003 333.822 102.336C332.769 105.473 330.113 107.802 326.866 108.436C321.919 109.401 317.116 106.204 316.099 101.267C315.081 96.3305 318.228 91.4946 323.154 90.4251Z"/><path fill="#FE899F" transform="scale(2 2)" d="M273.823 145.892C278.624 145.104 283.164 148.33 283.999 153.123C284.835 157.915 281.655 162.487 276.871 163.37C272.019 164.266 267.368 161.031 266.52 156.17C265.673 151.31 268.954 146.691 273.823 145.892Z"/><path fill="#FBC34B" transform="scale(2 2)" d="M379.874 318.001C384.34 317.63 388.286 320.894 388.76 325.351C389.233 329.808 386.06 333.828 381.615 334.403C378.648 334.787 375.705 333.534 373.925 331.129C372.146 328.724 371.808 325.543 373.043 322.818C374.278 320.092 376.892 318.249 379.874 318.001Z"/><path fill="#FB5392" transform="scale(2 2)" d="M417.821 278.742C426.423 278.975 427.802 290.909 419.753 293.224C411.831 293.475 410.307 282.255 417.821 278.742Z"/><path fill="#FB5392" transform="scale(2 2)" d="M405.241 267.561C413.224 266.372 419.081 275.283 408.814 278.742C397.619 279.585 396.151 268.94 405.241 267.561Z"/><path fill="#FEA304" transform="scale(2 2)" d="M318.979 159.268C327.007 158.273 333.439 165.558 323.985 171.037C315.072 172.772 310.247 163.275 318.979 159.268Z"/><path fill="#FB5392" transform="scale(2 2)" d="M417.821 252.522C427.017 251.908 426.645 264.06 421.342 266.362C411.864 267.184 409.89 255.291 417.821 252.522Z"/><path fill="#FEA304" transform="scale(2 2)" d="M330.478 172.281C338.333 171.415 340.407 182.675 332.674 187.095C325.107 185.69 322.755 175.671 330.478 172.281Z"/><path fill="#FB5392" transform="scale(2 2)" d="M429.931 267.561C435.017 267.313 437.139 268.127 438.629 273.193C437.674 276.319 436.646 277.807 433.359 278.742C421.522 279.158 421.098 269.064 429.931 267.561Z"/><path fill="#FEA304" transform="scale(2 2)" d="M341.705 159.268C350.209 158.892 353.294 169.311 343.212 171.037C333.475 170.227 332.084 162.254 341.705 159.268Z"/><path fill="#FEA304" transform="scale(2 2)" d="M331.909 145.791C339.675 146.024 340.068 157.067 332.674 159.268C325.56 159.249 322.822 146.943 331.909 145.791Z"/></svg>