<?xml version="1.0" encoding="utf-8" ?><svg xmlns="http://www.w3.org/2000/svg" xmlns:xlink="http://www.w3.org/1999/xlink" width="1024" height="1024" viewBox="0 0 1024 1024"><path fill="#5C5B5B" transform="scale(2 2)" d="M287.003 313.172C202.474 379.433 81.0097 329.217 62.8037 225.473C46.5542 132.877 123.905 52.0239 215.829 60.9942C325.512 71.6976 378.805 195.231 313.725 286.439C308.618 291.723 304.016 297.762 298.495 303.365C294.873 306.749 290.38 309.638 287.003 313.172ZM201.624 319.803C267.138 319.68 320.133 266.442 319.957 200.928C319.78 135.414 266.498 82.4635 200.984 82.6946C135.547 82.9255 82.6717 136.131 82.8484 201.568C83.025 267.006 136.187 319.925 201.624 319.803Z"/><path fill="#3B3A3B" transform="scale(2 2)" d="M200.984 82.6946C266.498 82.4635 319.78 135.414 319.957 200.928C320.133 266.442 267.138 319.68 201.624 319.803C136.187 319.925 83.025 267.006 82.8484 201.568C82.6717 136.131 135.547 82.9255 200.984 82.6946ZM252.249 115.247C216.401 94.1336 171.212 97.4914 138.878 123.671C106.544 149.851 93.8582 193.352 107.051 232.809C121.094 274.805 161.146 302.513 205.396 300.844C249.646 299.174 287.496 268.528 298.335 225.594C309.173 182.659 290.405 137.719 252.249 115.247Z"/><path fill="#D8EAED" transform="scale(2 2)" d="M107.051 232.809C93.8582 193.352 106.544 149.851 138.878 123.671C171.212 97.4914 216.401 94.1336 252.249 115.247C290.405 137.719 309.173 182.659 298.335 225.594C287.496 268.528 249.646 299.174 205.396 300.844C161.146 302.513 121.094 274.805 107.051 232.809ZM115.302 183.032C116.843 186.358 118.556 182.13 118.649 180.377L118.88 180.233C117.63 188.164 115.914 194.955 121.837 201.414C127.694 207.802 139.059 208.527 145.146 202.095C147.976 199.105 149.122 192.451 150.836 188.715C163.744 155.114 189.933 144.765 223.01 147.023C238.107 148.054 243.908 131.974 233.201 120.968C224.01 115.072 212.873 116.37 202.368 115.999C197.64 115.832 193.249 118.886 194.613 114.63C192.393 114.741 190.549 116.037 187.886 116.106C152.09 129.738 131.999 146.945 115.302 183.032Z"/><path fill="#81CFDD" transform="scale(2 2)" d="M107.051 232.809C93.8582 193.352 106.544 149.851 138.878 123.671C171.212 97.4914 216.401 94.1336 252.249 115.247C249.961 116.446 236.656 110.097 229.518 110.5C219.676 109.45 197.15 111.503 187.886 116.106C152.09 129.738 131.999 146.945 115.302 183.032C110.207 193.572 108.363 205.662 107.33 217.234C107.06 220.266 108.016 231.251 107.051 232.809Z"/><path fill="#EDF2F4" transform="scale(2 2)" d="M187.886 116.106C197.15 111.503 219.676 109.45 229.518 110.5C227.942 110.712 218.624 110.278 218.303 110.663L217.789 110.569C218.394 110.505 218.151 110.417 218.55 110.717L221.253 110.948C213.213 111.645 214.683 112.891 208.947 114.092C206.255 114.655 203.499 114.495 200.93 115.11L200.863 115.328C203.92 116.742 230.258 113.606 233.201 120.968C224.01 115.072 212.873 116.37 202.368 115.999C197.64 115.832 193.249 118.886 194.613 114.63C192.393 114.741 190.549 116.037 187.886 116.106Z"/><path fill="#C57647" transform="scale(2 2)" d="M348.276 323.986C354.115 317.657 355.449 314.8 361.693 320.912L424.786 383.682C438.612 397.645 459.834 411.04 448.932 433.807C443.692 444.053 435.451 450.528 423.816 451.491C409.343 452.688 401.292 441.907 392.163 432.79L335.053 376.059C330.296 371.332 325.437 366.607 320.803 361.775C314.648 355.358 318.855 354.043 323.93 348.54C325.256 347.56 330.345 342.323 331.801 340.88L334.246 338.875C336.692 336.295 347.009 326.08 348.276 323.986Z"/><path fill="#B14F2A" transform="scale(2 2)" d="M331.801 340.88C337.776 347.3 345.059 354.147 351.366 360.47L390.78 399.898C398.497 407.568 406.095 415.383 413.975 422.878C423.695 432.122 430.956 440.75 445.345 434.496C446.404 434.039 447.774 433.419 448.932 433.807C443.692 444.053 435.451 450.528 423.816 451.491C409.343 452.688 401.292 441.907 392.163 432.79L335.053 376.059C330.296 371.332 325.437 366.607 320.803 361.775C314.648 355.358 318.855 354.043 323.93 348.54C325.256 347.56 330.345 342.323 331.801 340.88Z"/><path fill="#AAA9A9" transform="scale(2 2)" d="M313.725 286.439C324.679 294.214 336.175 313.963 348.276 323.986C347.009 326.08 336.692 336.295 334.246 338.875L331.801 340.88C330.345 342.323 325.256 347.56 323.93 348.54C321.944 346.511 319.333 344.352 317.211 342.31L297.829 323.719C294.941 320.982 289.347 315.97 287.003 313.172C290.38 309.638 294.873 306.749 298.495 303.365C304.016 297.762 308.618 291.723 313.725 286.439Z"/><path fill="#7C7B7C" transform="scale(2 2)" d="M287.003 313.172C290.38 309.638 294.873 306.749 298.495 303.365C309.374 315.584 322.799 327.109 334.246 338.875L331.801 340.88C330.345 342.323 325.256 347.56 323.93 348.54C321.944 346.511 319.333 344.352 317.211 342.31L297.829 323.719C294.941 320.982 289.347 315.97 287.003 313.172Z"/></svg>