<svg xmlns="http://www.w3.org/2000/svg" viewBox="300 200 440 600" width="1024" height="1024"><path fill="currentColor" transform="scale(2 2)" d="M251.724 120.241C292.099 116.006 333.322 148.379 341.784 187.699C349.613 224.08 333.989 254.362 306.146 276.366C300.534 280.801 290.424 282.015 285.865 286.917C277.693 295.707 280.688 308.471 274.943 317.013C262.186 336.38 226.696 327.87 233.173 294.887C235.824 281.387 239.865 271.299 247.555 260.03C251.934 253.972 262.127 243.93 268.474 240.356C276.495 236.098 283.216 235.327 289.107 227.709C298.349 215.758 298.827 199.451 291.065 186.685C273.123 157.177 231.314 162.292 218.105 193.171C216.601 196.688 216.173 200.717 214.325 204.113C203.424 223.501 172.407 218.828 170.08 195.677C169.429 189.206 171.385 184.817 173.298 178.941C184.909 143.291 215.812 123.577 251.724 120.241Z"/><path fill="currentColor" transform="scale(2 2)" d="M248.076 336.509C263.421 334.867 277.184 345.994 278.792 361.343C280.401 376.691 269.244 390.43 253.892 392.006C238.587 393.577 224.898 382.461 223.295 367.159C221.691 351.857 232.777 338.145 248.076 336.509Z"/></svg>
