<?xml version="1.0" encoding="utf-8" ?><svg xmlns="http://www.w3.org/2000/svg" width="1024" height="1024" viewBox="0 0 1024 1024"><path fill="currentColor" transform="scale(2 2)" d="M170.174 70.0997C181.519 70.7376 178.843 82.1983 178.823 90.1099L178.815 120.169L295.255 120.164C332.297 120.164 359.462 126.523 391.014 148.436C475.689 207.244 472.271 336.227 383.808 389.681C348.213 411.189 328.261 412.424 289.514 412.424L155.69 412.423C109.305 412.422 106.515 357.605 140.315 346.203C146.738 343.89 163.25 344.497 170.854 344.507L309.043 344.428C398.097 343.219 413.667 211.862 322.306 189.501C308.477 186.116 295.026 186.894 280.919 186.901L200.151 186.906C193.492 186.904 185.303 186.649 178.815 186.906C178.465 199.477 179.212 212.227 178.665 224.81C178.264 234.046 170.063 235.268 163.703 230.533L75.1247 166.705C55.7842 152.713 51.0854 153.22 72.4515 137.932L111.251 110.632C120.479 104.057 163.078 70.8301 170.174 70.0997Z"/><path fill="currentColor" transform="scale(2 2)" d="M163.35 92.447L163.612 92.6232C163.187 98.2306 163.247 104.271 163.34 110.274C164.572 132.449 157.247 134.993 183.199 134.995L270.691 134.979C285.598 134.978 301.047 134.323 315.874 135.719C381.971 142.535 433.964 194.106 437.23 261.208C440.749 333.49 383.046 394.275 311.405 397.12C299.78 397.581 287.318 397.178 275.549 397.176L169.305 397.179C162.885 397.179 155.696 397.33 149.346 396.881C129.873 393.669 127.406 365.011 147.497 359.983C151.415 359.003 156.393 359.468 160.484 359.474L178.815 359.481L292.915 359.491C306.196 359.496 317.389 360.041 330.416 356.622C371.128 345.934 399.517 309.884 399.621 267.648C399.755 213.276 355.568 172.565 302.313 172.062L186.692 172.047C165.739 172.033 163.292 167.92 163.336 190.706L163.35 211.276L80.3629 151.303C83.3818 148.848 89.3599 145.053 92.9099 142.505L148.378 102.631C152.444 99.7108 159.146 94.6693 163.35 92.447Z"/></svg>
